<?xml version="1.0" encoding="UTF-8"?>
<svg width="500px" height="112px" viewBox="0 0 500 112" version="1.1" xmlns="http://www.w3.org/2000/svg" xmlns:xlink="http://www.w3.org/1999/xlink">
    <!-- Generator: Sketch 61.2 (89653) - https://sketch.com -->
    <title>Persistent Logo/SVG (Screen)/Logo Horizontal/Persistent_Logo_Horizontal_Orange_Silver</title>
    <desc>Created with Sketch.</desc>
    <g id="Logo-Horizontal/Persistent_Logo_Horizontal_Orange_Silver" stroke="none" stroke-width="1" fill="none" fill-rule="evenodd">
        <g id="Logo-Horizontal/Persistent_Logo_Horizontal_Default">
            <g id="Logo-Elements/Persistent_Logo_Wordmark" transform="translate(148.000000, 27.000000)" fill="#EEEEEE">
                <path d="M131.559961,17.3454286 C138.423435,17.3454286 144.881829,21.0559048 147.384743,26.6235238 L137.777214,31.706381 C136.565788,28.7206667 133.900843,26.7844762 131.478945,26.7844762 C129.299141,26.7844762 127.765558,27.914 127.765558,29.5273333 C127.765558,30.9797143 128.895968,32.0282857 131.075772,32.5930476 L136.081599,33.8844762 C143.590341,35.8206667 147.626838,40.0159048 147.626838,45.6635238 C147.626838,53.6501905 140.845333,59.2978095 131.559961,59.2978095 C123.647093,59.2978095 117.349776,55.6673333 114.684831,49.5359048 L124.212297,44.2911429 C125.665818,47.5997143 128.653874,49.6968571 131.640976,49.6968571 C134.14389,49.6968571 135.839505,48.5673333 135.839505,46.6311429 C135.839505,45.2597143 134.628079,44.2101905 132.206181,43.646381 L127.523464,42.5168571 C120.014722,40.741619 116.138351,36.546381 116.138351,30.254 C116.138351,22.6701905 122.43662,17.3454286 131.559961,17.3454286 Z M186.519318,17.3454286 C193.382792,17.3454286 199.84214,21.0559048 202.345054,26.6235238 L192.736571,31.706381 C191.526099,28.7206667 188.861153,26.7844762 186.438302,26.7844762 C184.258498,26.7844762 182.724916,27.914 182.724916,29.5273333 C182.724916,30.9797143 183.855325,32.0282857 186.035129,32.5930476 L191.040957,33.8844762 C198.550652,35.8206667 202.587148,40.0159048 202.587148,45.6635238 C202.587148,53.6501905 195.80469,59.2978095 186.519318,59.2978095 C178.607403,59.2978095 172.309134,55.6673333 169.645141,49.5359048 L179.172608,44.2911429 C180.626128,47.5997143 183.613231,49.6968571 186.600334,49.6968571 C189.103248,49.6968571 190.798862,48.5673333 190.798862,46.6311429 C190.798862,45.2597143 189.587437,44.2101905 187.165539,43.646381 L182.482821,42.5168571 C174.974079,40.741619 171.097708,36.546381 171.097708,30.254 C171.097708,22.6701905 177.395977,17.3454286 186.519318,17.3454286 Z M62.0094539,17.3451429 C74.0398345,17.3451429 82.3558756,26.1394286 82.3558756,38.6441905 C82.3558756,40.015619 82.2748597,41.0641905 82.1938438,41.548 L52.8851603,41.548 C53.2892866,46.2270476 57.5678778,49.6165714 62.4936429,49.6165714 C66.85325,49.6165714 69.1950853,47.760381 71.0517785,44.775619 L80.9833714,48.7289524 C77.6731581,55.2632381 71.2138102,59.2975238 62.4936429,59.2975238 C50.0591361,59.2975238 41.3399219,50.6651429 41.3399219,38.3213333 C41.3399219,26.3013333 50.2211678,17.3451429 62.0094539,17.3451429 Z M255.553896,17.3451429 C267.583324,17.3451429 275.899365,26.1394286 275.899365,38.6441905 C275.899365,40.015619 275.819302,41.0641905 275.738286,41.548 L246.429603,41.548 C246.833729,46.2270476 251.113273,49.6165714 256.038085,49.6165714 C260.397692,49.6165714 262.739528,47.760381 264.596221,44.775619 L274.527814,48.7289524 C271.217601,55.2632381 264.758253,59.2975238 256.038085,59.2975238 C243.603579,59.2975238 234.884364,50.6651429 234.884364,38.3213333 C234.884364,26.3013333 243.76561,17.3451429 255.553896,17.3451429 Z M222.183363,6.69619048 L222.183363,18.3942857 L232.276035,18.3942857 L232.276035,28.0752381 L222.183363,28.0752381 L222.183363,42.6780952 C222.183363,46.9542857 224.041009,48.647619 227.916427,48.647619 C229.369947,48.647619 230.983593,48.2447619 232.276035,47.4380952 L232.276035,57.6038095 C230.500357,58.4904762 227.835412,59.2161905 224.041009,59.2161905 C215.642999,59.2161905 210.476093,54.0533333 210.476093,45.1790476 L210.476093,28.0752381 L204.824044,28.0752381 L204.824044,18.3942857 L210.476093,18.3942857 L210.476093,6.69619048 L222.183363,6.69619048 Z M340.760768,6.69619048 L340.760768,18.3942857 L350.852487,18.3942857 L350.852487,28.0752381 L340.760768,28.0752381 L340.760768,42.6780952 C340.760768,46.9542857 342.617461,48.647619 346.493833,48.647619 C347.9464,48.647619 349.560998,48.2447619 350.852487,47.4380952 L350.852487,57.6038095 C349.076809,58.4904762 346.411864,59.2161905 342.617461,59.2161905 C334.220404,59.2161905 329.052545,54.0533333 329.052545,45.1790476 L329.052545,28.0752381 L323.401449,28.0752381 L323.401449,18.3942857 L329.052545,18.3942857 L329.052545,6.69619048 L340.760768,6.69619048 Z M19.2168698,1.7752381 C31.4893448,1.7752381 39.9664645,8.39047619 39.9664645,20.007619 C39.9664645,31.5447619 31.4893448,38.2409524 19.2168698,38.2409524 L12.1113011,38.2409524 L12.1113011,58.2485714 L-9.53127918e-05,58.2485714 L-9.53127918e-05,1.7752381 L19.2168698,1.7752381 Z M111.172554,17.5066667 C112.06087,17.5066667 112.949185,17.667619 113.191279,17.7485714 L113.191279,29.8504762 C112.545059,29.527619 111.414649,29.3666667 110.203223,29.3666667 C103.663813,29.3666667 99.7883945,34.2066667 99.7883945,42.032381 L99.7883945,58.2485714 L88.0811243,58.2485714 L88.0811243,18.3942857 L99.7073787,18.3942857 L99.7073787,24.9295238 C101.807119,20.3304762 106.004695,17.5066667 111.172554,17.5066667 Z M164.890177,18.3938095 L164.890177,58.2480952 L153.101891,58.2480952 L153.101891,18.3938095 L164.890177,18.3938095 Z M305.202139,17.345619 C314.325479,17.345619 319.897465,23.5570476 319.897465,33.6427619 L319.897465,58.2484762 L308.108226,58.2484762 L308.108226,36.3846667 C308.108226,31.1418095 305.525249,28.1560952 300.922595,28.1560952 C296.400956,28.1560952 293.413853,31.5446667 293.413853,37.1113333 L293.413853,58.2484762 L281.625567,58.2484762 L281.625567,18.3941905 L293.413853,18.3941905 L293.413853,23.4770476 C295.836704,19.6046667 299.873201,17.345619 305.202139,17.345619 Z M61.928438,26.5432381 C57.2457206,26.5432381 53.4503652,30.0927619 52.9661762,33.8841905 L70.809684,33.8841905 C70.325495,29.6089524 66.6921714,26.5432381 61.928438,26.5432381 Z M255.472881,26.5432381 C250.790163,26.5432381 246.994808,30.0927619 246.510619,33.8841905 L264.354126,33.8841905 C263.869937,29.6089524 260.236614,26.5432381 255.472881,26.5432381 Z M19.4580111,12.6666667 L12.1113011,12.6666667 L12.1113011,27.5104762 L19.4580111,27.5104762 C24.3027603,27.5104762 27.7750053,24.767619 27.7750053,20.0885714 C27.7750053,15.4095238 24.3027603,12.6666667 19.4580111,12.6666667 Z M158.996034,-0.000476190476 C162.790436,-0.000476190476 165.858555,3.14619048 165.858555,6.85666667 C165.858555,10.5680952 162.790436,13.7147619 158.996034,13.7147619 C155.200678,13.7147619 152.133513,10.5680952 152.133513,6.85666667 C152.133513,3.14619048 155.200678,-0.000476190476 158.996034,-0.000476190476 Z" id="Persistent"></path>
            </g>
            <g id="Logo-Elements/Persistent_Logo_Infinity" fill="#FD5F07">
                <path d="M105.064688,18.5939305 C103.878961,14.9835323 101.977245,11.6208094 99.471513,8.83929784 C96.9753399,6.05165339 93.9274963,3.8112534 90.5792379,2.29453704 C83.8772591,-0.775221374 76.0118561,-0.750217962 69.3808843,2.28179946 C62.7321609,5.27984998 57.4803657,11.2066019 55.0943447,18.2127464 C54.4980671,19.9629852 54.0779417,21.7759684 53.8421616,23.6115962 C53.5899954,25.429297 53.5913609,27.3569185 53.6209472,29.0576222 L53.714713,39.5486761 L53.8726583,60.5317274 L53.9290998,71.0227813 C53.9359274,72.7716048 53.9168101,74.5199565 53.9436654,76.2683082 C53.953224,77.1363512 53.9828103,78.0317564 53.9773483,78.8766829 C53.9882724,79.7211378 53.9300102,80.560875 53.9136239,81.4072169 C53.8066581,83.0914089 53.6214024,84.7840926 53.269553,86.4555471 C52.9286279,88.1298321 52.3810538,89.7644891 51.6819069,91.3283817 C50.2767854,94.4523928 48.2913173,97.3433532 45.7878615,99.6880127 C40.7672946,104.346667 33.8941705,106.886636 27.1525915,106.295046 C23.7865814,106.064354 20.4674541,105.097241 17.4824245,103.471076 C14.4910223,101.8501 11.8582972,99.5474275 9.76267705,96.8140357 C8.70986008,95.4506422 7.78312626,93.9848762 6.99112387,92.4455152 C6.19866631,90.9080413 5.52956084,89.2969725 5.06573876,87.6231592 C4.06253573,84.2972338 3.83130745,80.7528823 4.28784676,77.3788371 C4.53819234,75.6885121 4.9278211,74.0213036 5.44762956,72.4149523 C5.98928637,70.8142623 6.65930218,69.2772601 7.44220109,67.8341387 C8.21372066,66.3848844 9.12725445,65.0455507 10.121354,63.8170813 C11.0990673,62.5768177 12.1887533,61.4549665 13.3904121,60.5010628 C18.0882608,56.5576003 24.3200451,54.862086 30.6892919,54.8384979 C37.2815738,54.8484049 43.8734006,54.9488903 50.467048,54.909734 L50.4165237,47.743662 C43.8529177,47.8889649 37.2861255,48.3446874 30.7234299,48.8414533 C27.0638327,49.1212084 23.4483873,50.0331253 20.0514253,51.4965325 C18.3504409,52.216442 16.7354843,53.1387377 15.2033693,54.153027 C13.6785371,55.1819409 12.229719,56.3212473 10.9402116,57.6251988 C9.62658009,58.9013163 8.47453524,60.3368895 7.44811835,61.8451141 C6.41714973,63.3519235 5.5163608,64.9488394 4.7871724,66.624068 C3.26461608,69.9499934 2.28917866,73.5103848 1.89454299,77.2038132 C1.53040396,80.9316803 1.76117707,84.7524846 2.60871066,88.4595941 C3.47080981,92.1657601 5.00019373,95.7516266 7.16181404,98.9968807 C9.32889643,102.228925 12.1473325,105.132152 15.5174392,107.343774 C18.8820839,109.551151 22.7833784,111.035315 26.7743421,111.637284 C27.2741229,111.730693 27.7725382,111.778813 28.2732294,111.833066 C28.772555,111.888734 29.2737014,111.942986 29.7998823,111.959026 C30.3215114,111.988276 30.8431406,112.00809 31.3638594,111.996767 C31.8863989,112 32.4084832,111.985917 32.9282917,111.947232 C35.0148083,111.832122 37.0881249,111.466978 39.0999931,110.877747 C41.1132267,110.29512 43.0736602,109.504918 44.9480659,108.526011 C46.8247474,107.547576 48.5867251,106.337505 50.244468,104.984018 C53.526271,102.227982 56.2263619,98.7223149 58.2291266,94.8288592 C58.4872101,94.3457745 58.7220798,93.8504239 58.9437494,93.3484686 C59.1740674,92.8498157 59.3820818,92.3421992 59.5755307,91.8275064 C59.9879181,90.8099147 60.3220157,89.7583562 60.5987613,88.6954753 C61.1695493,86.5725442 61.52504,84.4038521 61.7630959,82.2394059 C61.8468478,81.1543522 61.954724,80.0721291 61.9852207,78.9889624 L62.0380208,77.5802797 L62.104021,76.2683082 L62.347539,71.0227813 L62.5783121,60.5317274 L63.0216514,39.5486761 L63.2351279,29.0576222 L63.2565211,27.7461225 L63.2633487,27.4324005 L63.2760935,27.2130309 L63.2979419,26.77382 C63.3352661,26.1902499 63.4017215,25.6118691 63.4932114,25.0405647 C63.6848396,23.8998431 63.9474749,22.7770484 64.340745,21.6990711 C65.1209129,19.5412296 66.3466959,17.5654883 67.8551418,15.8586517 C69.3790637,14.1621938 71.2411796,12.7884215 73.2867306,11.8642388 C75.335923,10.942415 77.5599021,10.4748983 79.8321296,10.4706525 C82.1016261,10.4324397 84.3497295,10.8777835 86.4439841,11.7873415 C88.536418,12.6945408 90.4709065,14.064539 92.067201,15.7930767 C93.651661,17.5305779 94.9343407,19.5822729 95.7531983,21.8391846 C96.5770629,24.088548 96.9471192,26.5516199 96.8283188,29.02224 C96.7195323,31.4796507 96.129627,33.9148886 95.0622445,36.1557604 C93.9889447,38.3853098 92.4741264,40.4412507 90.5751413,42.051376 C88.6825287,43.6638601 86.4671979,44.8762897 84.0939218,45.5631759 C82.9100148,45.9174695 81.687418,46.1580683 80.4402418,46.2613843 L79.9714128,46.2911054 C79.8007227,46.3000688 79.6937568,46.3170523 79.4570664,46.3198829 L78.1916833,46.355265 L75.6609171,46.4250859 L66.2347231,46.6859705 L66.0608468,54.9248304 L75.6609171,55.0559804 L78.1916833,55.090419 L79.4570664,55.1078742 L80.8121188,55.0951366 C82.6396416,55.0375816 84.4657988,54.7833016 86.2509904,54.341732 C89.8286563,53.4769914 93.2356321,51.8069522 96.1614892,49.4769173 C99.1010015,47.1596201 101.50705,44.1460014 103.272669,40.792242 C106.813466,34.0540585 107.458903,25.8208599 105.064688,18.5939305" id="Swoosh"></path>
            </g>
        </g>
    </g>
</svg>